{"title":"The Bucket List - AVM","uid":5045264,"size":252534616,"categoryP":"video","categoryS":"handheld","magnet":"?xt=urn:btih:f23e6514c2e4c241b4d315fa7b00a09ba0feb9bd&amp;dn=The+Bucket+List+-+AVM&amp;tr=udp%3A%2F%2Ftracker.openbittorrent.com%3A80&amp;tr=udp%3A%2F%2Fopen.demonii.com%3A1337&amp;tr=udp%3A%2F%2Ftracker.coppersurfer.tk%3A6969&amp;tr=udp%3A%2F%2Fexodus.desync.com%3A6969","seeders":0,"leechers":0,"uploader":"AVIDM","files":1,"time":1249593981,"description":"AVIDMobile - http://www.avidmobile.com.ar (Mobile media)\n\nVideo\nID                               : 1\nFormat                           : MPEG-4 Visual\nFormat profile                   : Advanced Simple@L5\nFormat settings, BVOP            : Yes\nFormat settings, QPel            : No\nFormat settings, GMC             : No warppoints\nFormat settings, Matrix          : Default (H.263)\nCodec ID                         : 20\nDuration                         : 1h 37mn\nBit rate mode                    : Variable\nBit rate                         : 279 Kbps\nMaximum bit rate                 : 866 Kbps\nWidth                            : 320 pixels\nHeight                           : 240 pixels\nDisplay aspect ratio             : 4/3\nFrame rate mode                  : Variable\nFrame rate                       : 23.976 fps\nMinimum frame rate               : 23.974 fps\nMaximum frame rate               : 23.981 fps\nResolution                       : 24 bits\nColorimetry                      : 4:2:0\nScan type                        : Progressive\nBits/(Pixel*Frame)               : 0.152\nStream size                      : 194 MiB (80%)\n\nAudio\nID                               : 2\nFormat                           : AAC\nFormat/Info                      : Advanced Audio Codec\nFormat version                   : Version 4\nFormat profile                   : LC\nFormat settings, SBR             : No\nCodec ID                         : 40\nDuration                         : 1h 37mn\nBit rate mode                    : Variable\nBit rate                         : 64.4 Kbps\nMaximum bit rate                 : 100 Kbps\nChannel(s)                       : 2 channels\nChannel positions                : L R\nSampling rate                    : 22.05 KHz\nResolution                       : 16 bits\nStream size                      : 44.7 MiB (19%)","torrent":{"xt":"urn:btih:f23e6514c2e4c241b4d315fa7b00a09ba0feb9bd","amp;dn":"The+Bucket+List+-+AVM","amp;tr":["udp%3A%2F%2Ftracker.openbittorrent.com%3A80","udp%3A%2F%2Fopen.demonii.com%3A1337","udp%3A%2F%2Ftracker.coppersurfer.tk%3A6969","udp%3A%2F%2Fexodus.desync.com%3A6969"],"infoHash":"f23e6514c2e4c241b4d315fa7b00a09ba0feb9bd","infoHashBuffer":{"type":"Buffer","data":[242,62,101,20,194,228,194,65,180,211,21,250,123,0,160,155,160,254,185,189]},"announce":[],"urlList":[]}}